<svg xmlns="http://www.w3.org/2000/svg" width="1477.5467529296875" height="1407.6966552734375" viewBox="-715.7520751953125 -717.8850708007812 1477.5467529296875 1407.6966552734375"><title>Neo4j Graph Visualization</title><desc>Created using Neo4j (http://www.neo4j.com/)</desc><g class="layer relationships"><g class="relationship" transform="translate(221.09650010942937 -28.69999498048442) rotate(511.0101052623611)"><path class="b-outline" fill="#A5ABB6" stroke="none" d="M 25 0.5 L 155.46215756629573 0.5 L 155.46215756629573 -0.5 L 25 -0.5 Z M 232.00122006629573 0.5 L 362.46337763259146 0.5 L 362.46337763259146 3.5 L 369.46337763259146 0 L 362.46337763259146 -3.5 L 362.46337763259146 -0.5 L 232.00122006629573 -0.5 Z"/><text text-anchor="middle" pointer-events="none" font-size="8px" fill="#000000" x="193.73168881629573" y="3" transform="rotate(180 193.73168881629573 0)" font-family="Helvetica Neue, Helvetica, Arial, sans-serif">HAS_NAMESPACE</text></g><g class="relationship" transform="translate(221.09650010942937 -28.69999498048442) rotate(233.75355264756882)"><path class="b-outline" fill="#A5ABB6" stroke="none" d="M 25 0.5 L 128.95445308958122 0.5 L 128.95445308958122 -0.5 L 25 -0.5 Z M 205.49351558958122 0.5 L 309.44796867916244 0.5 L 309.44796867916244 3.5 L 316.44796867916244 0 L 309.44796867916244 -3.5 L 309.44796867916244 -0.5 L 205.49351558958122 -0.5 Z"/><text text-anchor="middle" pointer-events="none" font-size="8px" fill="#000000" x="167.22398433958122" y="3" transform="rotate(180 167.22398433958122 0)" font-family="Helvetica Neue, Helvetica, Arial, sans-serif">HAS_NAMESPACE</text></g><g class="relationship" transform="translate(221.09650010942937 -28.69999498048442) rotate(351.2721316509271)"><path class="b-outline" fill="#A5ABB6" stroke="none" d="M 25 0.5 L 30.95990047827854 0.5 L 30.95990047827854 -0.5 L 25 -0.5 Z M 107.49896297827854 0.5 L 113.45886345655708 0.5 L 113.45886345655708 3.5 L 120.45886345655708 0 L 113.45886345655708 -3.5 L 113.45886345655708 -0.5 L 107.49896297827854 -0.5 Z"/><text text-anchor="middle" pointer-events="none" font-size="8px" fill="#000000" x="69.22943172827854" y="3" font-family="Helvetica Neue, Helvetica, Arial, sans-serif">HAS_NAMESPACE</text></g><g class="relationship" transform="translate(221.09650010942937 -28.69999498048442) rotate(258.1418207079489)"><path class="b-outline" fill="#A5ABB6" stroke="none" d="M 25 0.5 L 31.07560937058922 0.5 L 31.07560937058922 -0.5 L 25 -0.5 Z M 107.61467187058922 0.5 L 113.69028124117844 0.5 L 113.69028124117844 3.5 L 120.69028124117844 0 L 113.69028124117844 -3.5 L 113.69028124117844 -0.5 L 107.61467187058922 -0.5 Z"/><text text-anchor="middle" pointer-events="none" font-size="8px" fill="#000000" x="69.34514062058922" y="3" transform="rotate(180 69.34514062058922 0)" font-family="Helvetica Neue, Helvetica, Arial, sans-serif">HAS_NAMESPACE</text></g><g class="relationship" transform="translate(221.09650010942937 -28.69999498048442) rotate(425.11938593821657)"><path class="b-outline" fill="#A5ABB6" stroke="none" d="M 25 0.5 L 145.1609063671681 0.5 L 145.1609063671681 -0.5 L 25 -0.5 Z M 221.6999688671681 0.5 L 341.8608752343362 0.5 L 341.8608752343362 3.5 L 348.8608752343362 0 L 341.8608752343362 -3.5 L 341.8608752343362 -0.5 L 221.6999688671681 -0.5 Z"/><text text-anchor="middle" pointer-events="none" font-size="8px" fill="#000000" x="183.4304376171681" y="3" font-family="Helvetica Neue, Helvetica, Arial, sans-serif">HAS_NAMESPACE</text></g><g class="relationship" transform="translate(221.09650010942937 -28.69999498048442) rotate(205.9541584701351)"><path class="b-outline" fill="#A5ABB6" stroke="none" d="M 25 0.5 L 253.5644923597747 0.5 L 253.5644923597747 -0.5 L 25 -0.5 Z M 330.1035548597747 0.5 L 558.6680472195494 0.5 L 558.6680472195494 3.5 L 565.6680472195494 0 L 558.6680472195494 -3.5 L 558.6680472195494 -0.5 L 330.1035548597747 -0.5 Z"/><text text-anchor="middle" pointer-events="none" font-size="8px" fill="#000000" x="291.8340236097747" y="3" transform="rotate(180 291.8340236097747 0)" font-family="Helvetica Neue, Helvetica, Arial, sans-serif">HAS_NAMESPACE</text></g><g class="relationship" transform="translate(221.09650010942937 -28.69999498048442) rotate(309.0980659041636)"><path class="b-outline" fill="#A5ABB6" stroke="none" d="M 25 0.5 L 118.13573113634459 0.5 L 118.13573113634459 -0.5 L 25 -0.5 Z M 194.6747936363446 0.5 L 287.8105247726892 0.5 L 287.8105247726892 3.5 L 294.8105247726892 0 L 287.8105247726892 -3.5 L 287.8105247726892 -0.5 L 194.6747936363446 -0.5 Z"/><text text-anchor="middle" pointer-events="none" font-size="8px" fill="#000000" x="156.4052623863446" y="3" font-family="Helvetica Neue, Helvetica, Arial, sans-serif">HAS_NAMESPACE</text></g><g class="relationship" transform="translate(221.09650010942937 -28.69999498048442) rotate(306.6363646029524)"><path class="b-outline" fill="#A5ABB6" stroke="none" d="M 25 0.5 L 31.386443251314972 0.5 L 31.386443251314972 -0.5 L 25 -0.5 Z M 107.92550575131497 0.5 L 114.31194900262994 0.5 L 114.31194900262994 3.5 L 121.31194900262994 0 L 114.31194900262994 -3.5 L 114.31194900262994 -0.5 L 107.92550575131497 -0.5 Z"/><text text-anchor="middle" pointer-events="none" font-size="8px" fill="#000000" x="69.65597450131497" y="3" font-family="Helvetica Neue, Helvetica, Arial, sans-serif">HAS_NAMESPACE</text></g><g class="relationship" transform="translate(-123.94266730117073 162.47879371196535) rotate(537.4377047273343)"><path class="b-outline" fill="#A5ABB6" stroke="none" d="M 25 0.5 L 110.23227771598255 0.5 L 110.23227771598255 -0.5 L 25 -0.5 Z M 154.46665271598255 0.5 L 239.6989304319651 0.5 L 239.6989304319651 3.5 L 246.6989304319651 0 L 239.6989304319651 -3.5 L 239.6989304319651 -0.5 L 154.46665271598255 -0.5 Z"/><text text-anchor="middle" pointer-events="none" font-size="8px" fill="#000000" x="132.34946521598255" y="3" transform="rotate(180 132.34946521598255 0)" font-family="Helvetica Neue, Helvetica, Arial, sans-serif">HAS_POD</text></g><g class="relationship" transform="translate(-123.94266730117073 162.47879371196535) rotate(476.0762395852536)"><path class="b-outline" fill="#A5ABB6" stroke="none" d="M 25 0.5 L 116.3763792193775 0.5 L 116.3763792193775 -0.5 L 25 -0.5 Z M 160.6107542193775 0.5 L 251.987133438755 0.5 L 251.987133438755 3.5 L 258.987133438755 0 L 251.987133438755 -3.5 L 251.987133438755 -0.5 L 160.6107542193775 -0.5 Z"/><text text-anchor="middle" pointer-events="none" font-size="8px" fill="#000000" x="138.4935667193775" y="3" transform="rotate(180 138.4935667193775 0)" font-family="Helvetica Neue, Helvetica, Arial, sans-serif">HAS_POD</text></g><g class="relationship" transform="translate(19.212095939645877 -304.0713854119121) rotate(317.7872986554451)"><path class="b-outline" fill="#A5ABB6" stroke="none" d="M 25 0.5 L 58.96188933385753 0.5 L 58.96188933385753 -0.5 L 25 -0.5 Z M 103.19626433385753 0.5 L 137.15815366771506 0.5 L 137.15815366771506 3.5 L 144.15815366771506 0 L 137.15815366771506 -3.5 L 137.15815366771506 -0.5 L 103.19626433385753 -0.5 Z"/><text text-anchor="middle" pointer-events="none" font-size="8px" fill="#000000" x="81.07907683385753" y="3" font-family="Helvetica Neue, Helvetica, Arial, sans-serif">HAS_POD</text></g><g class="relationship" transform="translate(19.212095939645877 -304.0713854119121) rotate(286.9639421199669)"><path class="b-outline" fill="#A5ABB6" stroke="none" d="M 25 0.5 L 71.53582768230766 0.5 L 71.53582768230766 -0.5 L 25 -0.5 Z M 115.77020268230766 0.5 L 162.3060303646153 0.5 L 162.3060303646153 3.5 L 169.3060303646153 0 L 162.3060303646153 -3.5 L 162.3060303646153 -0.5 L 115.77020268230766 -0.5 Z"/><text text-anchor="middle" pointer-events="none" font-size="8px" fill="#000000" x="93.65301518230766" y="3" font-family="Helvetica Neue, Helvetica, Arial, sans-serif">HAS_POD</text></g><g class="relationship" transform="translate(19.212095939645877 -304.0713854119121) rotate(245.20925386262996)"><path class="b-outline" fill="#A5ABB6" stroke="none" d="M 25 0.5 L 108.2188701465185 0.5 L 108.2188701465185 -0.5 L 25 -0.5 Z M 152.4532451465185 0.5 L 235.672115293037 0.5 L 235.672115293037 3.5 L 242.672115293037 0 L 235.672115293037 -3.5 L 235.672115293037 -0.5 L 152.4532451465185 -0.5 Z"/><text text-anchor="middle" pointer-events="none" font-size="8px" fill="#000000" x="130.3360576465185" y="3" transform="rotate(180 130.3360576465185 0)" font-family="Helvetica Neue, Helvetica, Arial, sans-serif">HAS_POD</text></g><g class="relationship" transform="translate(378.39057203475744 310.46151369662596) rotate(506.8382585241932)"><path class="b-outline" fill="#A5ABB6" stroke="none" d="M 25 0.5 L 74.97119674276651 0.5 L 74.97119674276651 -0.5 L 25 -0.5 Z M 119.20557174276651 0.5 L 169.17676848553302 0.5 L 169.17676848553302 3.5 L 176.17676848553302 0 L 169.17676848553302 -3.5 L 169.17676848553302 -0.5 L 119.20557174276651 -0.5 Z"/><text text-anchor="middle" pointer-events="none" font-size="8px" fill="#000000" x="97.08838424276651" y="3" transform="rotate(180 97.08838424276651 0)" font-family="Helvetica Neue, Helvetica, Arial, sans-serif">HAS_POD</text></g><g class="relationship" transform="translate(378.39057203475744 310.46151369662596) rotate(477.31367433756145)"><path class="b-outline" fill="#A5ABB6" stroke="none" d="M 25 0.5 L 65.50794438224625 0.5 L 65.50794438224625 -0.5 L 25 -0.5 Z M 109.74231938224625 0.5 L 150.2502637644925 0.5 L 150.2502637644925 3.5 L 157.2502637644925 0 L 150.2502637644925 -3.5 L 150.2502637644925 -0.5 L 109.74231938224625 -0.5 Z"/><text text-anchor="middle" pointer-events="none" font-size="8px" fill="#000000" x="87.62513188224625" y="3" transform="rotate(180 87.62513188224625 0)" font-family="Helvetica Neue, Helvetica, Arial, sans-serif">HAS_POD</text></g><g class="relationship" transform="translate(378.39057203475744 310.46151369662596) rotate(384.4756835917286)"><path class="b-outline" fill="#A5ABB6" stroke="none" d="M 25 0.5 L 64.86157271543546 0.5 L 64.86157271543546 -0.5 L 25 -0.5 Z M 109.09594771543546 0.5 L 148.95752043087091 0.5 L 148.95752043087091 3.5 L 155.95752043087091 0 L 148.95752043087091 -3.5 L 148.95752043087091 -0.5 L 109.09594771543546 -0.5 Z"/><text text-anchor="middle" pointer-events="none" font-size="8px" fill="#000000" x="86.97876021543546" y="3" font-family="Helvetica Neue, Helvetica, Arial, sans-serif">HAS_POD</text></g><g class="relationship" transform="translate(378.39057203475744 310.46151369662596) rotate(352.79788661707585)"><path class="b-outline" fill="#A5ABB6" stroke="none" d="M 25 0.5 L 65.7480838254534 0.5 L 65.7480838254534 -0.5 L 25 -0.5 Z M 109.9824588254534 0.5 L 150.7305426509068 0.5 L 150.7305426509068 3.5 L 157.7305426509068 0 L 150.7305426509068 -3.5 L 150.7305426509068 -0.5 L 109.9824588254534 -0.5 Z"/><text text-anchor="middle" pointer-events="none" font-size="8px" fill="#000000" x="87.8652713254534" y="3" font-family="Helvetica Neue, Helvetica, Arial, sans-serif">HAS_POD</text></g><g class="relationship" transform="translate(378.39057203475744 310.46151369662596) rotate(416.01809105363736)"><path class="b-outline" fill="#A5ABB6" stroke="none" d="M 25 0.5 L 66.30693444842274 0.5 L 66.30693444842274 -0.5 L 25 -0.5 Z M 110.54130944842274 0.5 L 151.84824389684547 0.5 L 151.84824389684547 3.5 L 158.84824389684547 0 L 151.84824389684547 -3.5 L 151.84824389684547 -0.5 L 110.54130944842274 -0.5 Z"/><text text-anchor="middle" pointer-events="none" font-size="8px" fill="#000000" x="88.42412194842274" y="3" font-family="Helvetica Neue, Helvetica, Arial, sans-serif">HAS_POD</text></g><g class="relationship" transform="translate(378.39057203475744 310.46151369662596) rotate(286.12484664152015)"><path class="b-outline" fill="#A5ABB6" stroke="none" d="M 25 0.5 L 54.374376037961326 0.5 L 54.374376037961326 -0.5 L 25 -0.5 Z M 98.60875103796133 0.5 L 127.98312707592265 0.5 L 127.98312707592265 3.5 L 134.98312707592265 0 L 127.98312707592265 -3.5 L 127.98312707592265 -0.5 L 98.60875103796133 -0.5 Z"/><text text-anchor="middle" pointer-events="none" font-size="8px" fill="#000000" x="76.49156353796133" y="3" font-family="Helvetica Neue, Helvetica, Arial, sans-serif">HAS_POD</text></g><g class="relationship" transform="translate(378.39057203475744 310.46151369662596) rotate(320.503423434023)"><path class="b-outline" fill="#A5ABB6" stroke="none" d="M 25 0.5 L 61.58233045009683 0.5 L 61.58233045009683 -0.5 L 25 -0.5 Z M 105.81670545009683 0.5 L 142.39903590019367 0.5 L 142.39903590019367 3.5 L 149.39903590019367 0 L 142.39903590019367 -3.5 L 142.39903590019367 -0.5 L 105.81670545009683 -0.5 Z"/><text text-anchor="middle" pointer-events="none" font-size="8px" fill="#000000" x="83.69951795009683" y="3" font-family="Helvetica Neue, Helvetica, Arial, sans-serif">HAS_POD</text></g><g class="relationship" transform="translate(378.39057203475744 310.46151369662596) rotate(446.66824435658924)"><path class="b-outline" fill="#A5ABB6" stroke="none" d="M 25 0.5 L 70.41370419712548 0.5 L 70.41370419712548 -0.5 L 25 -0.5 Z M 114.64807919712548 0.5 L 160.06178339425097 0.5 L 160.06178339425097 3.5 L 167.06178339425097 0 L 160.06178339425097 -3.5 L 160.06178339425097 -0.5 L 114.64807919712548 -0.5 Z"/><text text-anchor="middle" pointer-events="none" font-size="8px" fill="#000000" x="92.53089169712548" y="3" font-family="Helvetica Neue, Helvetica, Arial, sans-serif">HAS_POD</text></g><g class="relationship" transform="translate(-309.9994217635311 -287.206984781662) rotate(249.24218125776156)"><path class="b-outline" fill="#A5ABB6" stroke="none" d="M 25 0.5 L 75.47785829594417 0.5 L 75.47785829594417 -0.5 L 25 -0.5 Z M 119.71223329594417 0.5 L 170.19009159188835 0.5 L 170.19009159188835 3.5 L 177.19009159188835 0 L 170.19009159188835 -3.5 L 170.19009159188835 -0.5 L 119.71223329594417 -0.5 Z"/><text text-anchor="middle" pointer-events="none" font-size="8px" fill="#000000" x="97.59504579594417" y="3" transform="rotate(180 97.59504579594417 0)" font-family="Helvetica Neue, Helvetica, Arial, sans-serif">HAS_POD</text></g><g class="relationship" transform="translate(-309.9994217635311 -287.206984781662) rotate(205.1611809475815)"><path class="b-outline" fill="#A5ABB6" stroke="none" d="M 25 0.5 L 97.7262400723316 0.5 L 97.7262400723316 -0.5 L 25 -0.5 Z M 141.96061507233162 0.5 L 214.6868551446632 0.5 L 214.6868551446632 3.5 L 221.6868551446632 0 L 214.6868551446632 -3.5 L 214.6868551446632 -0.5 L 141.96061507233162 -0.5 Z"/><text text-anchor="middle" pointer-events="none" font-size="8px" fill="#000000" x="119.8434275723316" y="3" transform="rotate(180 119.8434275723316 0)" font-family="Helvetica Neue, Helvetica, Arial, sans-serif">HAS_POD</text></g><g class="relationship" transform="translate(422.78488301840247 -276.8946120755098) rotate(358.39775071148927)"><path class="b-outline" fill="#A5ABB6" stroke="none" d="M 25 0.5 L 54.328312111228485 0.5 L 54.328312111228485 -0.5 L 25 -0.5 Z M 98.56268711122848 0.5 L 127.89099922245697 0.5 L 127.89099922245697 3.5 L 134.89099922245697 0 L 127.89099922245697 -3.5 L 127.89099922245697 -0.5 L 98.56268711122848 -0.5 Z"/><text text-anchor="middle" pointer-events="none" font-size="8px" fill="#000000" x="76.44549961122848" y="3" font-family="Helvetica Neue, Helvetica, Arial, sans-serif">HAS_POD</text></g><g class="relationship" transform="translate(422.78488301840247 -276.8946120755098) rotate(331.52421716113383)"><path class="b-outline" fill="#A5ABB6" stroke="none" d="M 25 0.5 L 79.84858690473972 0.5 L 79.84858690473972 -0.5 L 25 -0.5 Z M 124.08296190473972 0.5 L 178.93154880947944 0.5 L 178.93154880947944 3.5 L 185.93154880947944 0 L 178.93154880947944 -3.5 L 178.93154880947944 -0.5 L 124.08296190473972 -0.5 Z"/><text text-anchor="middle" pointer-events="none" font-size="8px" fill="#000000" x="101.96577440473972" y="3" font-family="Helvetica Neue, Helvetica, Arial, sans-serif">HAS_POD</text></g><g class="relationship" transform="translate(422.78488301840247 -276.8946120755098) rotate(259.25773457112575)"><path class="b-outline" fill="#A5ABB6" stroke="none" d="M 25 0.5 L 68.81566342200088 0.5 L 68.81566342200088 -0.5 L 25 -0.5 Z M 113.05003842200088 0.5 L 156.86570184400176 0.5 L 156.86570184400176 3.5 L 163.86570184400176 0 L 156.86570184400176 -3.5 L 156.86570184400176 -0.5 L 113.05003842200088 -0.5 Z"/><text text-anchor="middle" pointer-events="none" font-size="8px" fill="#000000" x="90.93285092200088" y="3" transform="rotate(180 90.93285092200088 0)" font-family="Helvetica Neue, Helvetica, Arial, sans-serif">HAS_POD</text></g><g class="relationship" transform="translate(-395.36995465805984 174.62525311191183) rotate(185.64349968199247)"><path class="b-outline" fill="#A5ABB6" stroke="none" d="M 25 0.5 L 39.71072557277297 0.5 L 39.71072557277297 -0.5 L 25 -0.5 Z M 113.12869432277297 0.5 L 127.83941989554594 0.5 L 127.83941989554594 3.5 L 134.83941989554594 0 L 127.83941989554594 -3.5 L 127.83941989554594 -0.5 L 113.12869432277297 -0.5 Z"/><text text-anchor="middle" pointer-events="none" font-size="8px" fill="#000000" x="76.41970994777297" y="3" transform="rotate(180 76.41970994777297 0)" font-family="Helvetica Neue, Helvetica, Arial, sans-serif">HAS_CONTAINER</text></g><g class="relationship" transform="translate(-395.36995465805984 174.62525311191183) rotate(509.480080716247)"><path class="b-outline" fill="#A5ABB6" stroke="none" d="M 25 0.5 L 40.229604421923895 0.5 L 40.229604421923895 -0.5 L 25 -0.5 Z M 113.6475731719239 0.5 L 128.8771775938478 0.5 L 128.8771775938478 3.5 L 135.8771775938478 0 L 128.8771775938478 -3.5 L 128.8771775938478 -0.5 L 113.6475731719239 -0.5 Z"/><text text-anchor="middle" pointer-events="none" font-size="8px" fill="#000000" x="76.9385887969239" y="3" transform="rotate(180 76.9385887969239 0)" font-family="Helvetica Neue, Helvetica, Arial, sans-serif">HAS_CONTAINER</text></g><g class="relationship" transform="translate(-248.77396071506465 417.5588598546876) rotate(463.79005192377895)"><path class="b-outline" fill="#A5ABB6" stroke="none" d="M 25 0.5 L 38.33877510510102 0.5 L 38.33877510510102 -0.5 L 25 -0.5 Z M 111.75674385510102 0.5 L 125.09551896020204 0.5 L 125.09551896020204 3.5 L 132.09551896020204 0 L 125.09551896020204 -3.5 L 125.09551896020204 -0.5 L 111.75674385510102 -0.5 Z"/><text text-anchor="middle" pointer-events="none" font-size="8px" fill="#000000" x="75.04775948010102" y="3" transform="rotate(180 75.04775948010102 0)" font-family="Helvetica Neue, Helvetica, Arial, sans-serif">HAS_CONTAINER</text></g><g class="relationship" transform="translate(-248.77396071506465 417.5588598546876) rotate(500.59193988705306)"><path class="b-outline" fill="#A5ABB6" stroke="none" d="M 25 0.5 L 39.12121225165579 0.5 L 39.12121225165579 -0.5 L 25 -0.5 Z M 112.53918100165579 0.5 L 126.66039325331158 0.5 L 126.66039325331158 3.5 L 133.66039325331158 0 L 126.66039325331158 -3.5 L 126.66039325331158 -0.5 L 112.53918100165579 -0.5 Z"/><text text-anchor="middle" pointer-events="none" font-size="8px" fill="#000000" x="75.83019662665579" y="3" transform="rotate(180 75.83019662665579 0)" font-family="Helvetica Neue, Helvetica, Arial, sans-serif">HAS_CONTAINER</text></g><g class="relationship" transform="translate(144.50004172855247 -417.7261767419141) rotate(292.68590649091186)"><path class="b-outline" fill="#A5ABB6" stroke="none" d="M 25 0.5 L 37.96526318354144 0.5 L 37.96526318354144 -0.5 L 25 -0.5 Z M 111.38323193354144 0.5 L 124.34849511708288 0.5 L 124.34849511708288 3.5 L 131.34849511708288 0 L 124.34849511708288 -3.5 L 124.34849511708288 -0.5 L 111.38323193354144 -0.5 Z"/><text text-anchor="middle" pointer-events="none" font-size="8px" fill="#000000" x="74.67424755854144" y="3" font-family="Helvetica Neue, Helvetica, Arial, sans-serif">HAS_CONTAINER</text></g><g class="relationship" transform="translate(75.90473082408268 -489.92288146700105) rotate(271.56775321613577)"><path class="b-outline" fill="#A5ABB6" stroke="none" d="M 25 0.5 L 39.920827404891526 0.5 L 39.920827404891526 -0.5 L 25 -0.5 Z M 113.33879615489153 0.5 L 128.25962355978305 0.5 L 128.25962355978305 3.5 L 135.25962355978305 0 L 128.25962355978305 -3.5 L 128.25962355978305 -0.5 L 113.33879615489153 -0.5 Z"/><text text-anchor="middle" pointer-events="none" font-size="8px" fill="#000000" x="76.62981177989153" y="3" font-family="Helvetica Neue, Helvetica, Arial, sans-serif">HAS_CONTAINER</text></g><g class="relationship" transform="translate(-93.02428389351651 -547.0762338149738) rotate(246.70631668158978)"><path class="b-outline" fill="#A5ABB6" stroke="none" d="M 25 0.5 L 36.98774071842416 0.5 L 36.98774071842416 -0.5 L 25 -0.5 Z M 110.40570946842416 0.5 L 122.39345018684833 0.5 L 122.39345018684833 3.5 L 129.39345018684833 0 L 122.39345018684833 -3.5 L 122.39345018684833 -0.5 L 110.40570946842416 -0.5 Z"/><text text-anchor="middle" pointer-events="none" font-size="8px" fill="#000000" x="73.69672509342416" y="3" transform="rotate(180 73.69672509342416 0)" font-family="Helvetica Neue, Helvetica, Arial, sans-serif">HAS_CONTAINER</text></g><g class="relationship" transform="translate(209.9795130749217 420.5060837503477) rotate(482.6274063835002)"><path class="b-outline" fill="#A5ABB6" stroke="none" d="M 25 0.5 L 39.211336465337666 0.5 L 39.211336465337666 -0.5 L 25 -0.5 Z M 112.62930521533767 0.5 L 126.84064168067533 0.5 L 126.84064168067533 3.5 L 133.84064168067533 0 L 126.84064168067533 -3.5 L 126.84064168067533 -0.5 L 112.62930521533767 -0.5 Z"/><text text-anchor="middle" pointer-events="none" font-size="8px" fill="#000000" x="75.92032084033767" y="3" transform="rotate(180 75.92032084033767 0)" font-family="Helvetica Neue, Helvetica, Arial, sans-serif">HAS_CONTAINER</text></g><g class="relationship" transform="translate(294.76292061697984 472.39228458521825) rotate(469.1797878438117)"><path class="b-outline" fill="#A5ABB6" stroke="none" d="M 25 0.5 L 40.3385330049895 0.5 L 40.3385330049895 -0.5 L 25 -0.5 Z M 113.7565017549895 0.5 L 129.095034759979 0.5 L 129.095034759979 3.5 L 136.095034759979 0 L 129.095034759979 -3.5 L 129.095034759979 -0.5 L 113.7565017549895 -0.5 Z"/><text text-anchor="middle" pointer-events="none" font-size="8px" fill="#000000" x="77.0475173799895" y="3" transform="rotate(180 77.0475173799895 0)" font-family="Helvetica Neue, Helvetica, Arial, sans-serif">HAS_CONTAINER</text></g><g class="relationship" transform="translate(543.0867403401916 385.43348409888483) rotate(381.5105819513741)"><path class="b-outline" fill="#A5ABB6" stroke="none" d="M 25 0.5 L 37.500550065993735 0.5 L 37.500550065993735 -0.5 L 25 -0.5 Z M 110.91851881599374 0.5 L 123.41906888198747 0.5 L 123.41906888198747 3.5 L 130.41906888198747 0 L 123.41906888198747 -3.5 L 123.41906888198747 -0.5 L 110.91851881599374 -0.5 Z"/><text text-anchor="middle" pointer-events="none" font-size="8px" fill="#000000" x="74.20953444099374" y="3" font-family="Helvetica Neue, Helvetica, Arial, sans-serif">HAS_CONTAINER</text></g><g class="relationship" transform="translate(559.67938489533 287.5526169728821) rotate(353.9511664561105)"><path class="b-outline" fill="#A5ABB6" stroke="none" d="M 25 0.5 L 38.3127213398359 0.5 L 38.3127213398359 -0.5 L 25 -0.5 Z M 111.7306900898359 0.5 L 125.0434114296718 0.5 L 125.0434114296718 3.5 L 132.0434114296718 0 L 125.0434114296718 -3.5 L 125.0434114296718 -0.5 L 111.7306900898359 -0.5 Z"/><text text-anchor="middle" pointer-events="none" font-size="8px" fill="#000000" x="75.0217057148359" y="3" font-family="Helvetica Neue, Helvetica, Arial, sans-serif">HAS_CONTAINER</text></g><g class="relationship" transform="translate(481.14907474964053 462.91106897229525) rotate(421.06534156619085)"><path class="b-outline" fill="#A5ABB6" stroke="none" d="M 25 0.5 L 37.738859166532706 0.5 L 37.738859166532706 -0.5 L 25 -0.5 Z M 111.1568279165327 0.5 L 123.89568708306541 0.5 L 123.89568708306541 3.5 L 130.8956870830654 0 L 123.89568708306541 -3.5 L 123.89568708306541 -0.5 L 111.1568279165327 -0.5 Z"/><text text-anchor="middle" pointer-events="none" font-size="8px" fill="#000000" x="74.4478435415327" y="3" font-family="Helvetica Neue, Helvetica, Arial, sans-serif">HAS_CONTAINER</text></g><g class="relationship" transform="translate(422.82288982771655 156.77231406133504) rotate(317.361883777476)"><path class="b-outline" fill="#A5ABB6" stroke="none" d="M 25 0.5 L 37.1995315269599 0.5 L 37.1995315269599 -0.5 L 25 -0.5 Z M 110.6175002769599 0.5 L 122.8170318039198 0.5 L 122.8170318039198 3.5 L 129.8170318039198 0 L 122.8170318039198 -3.5 L 122.8170318039198 -0.5 L 110.6175002769599 -0.5 Z"/><text text-anchor="middle" pointer-events="none" font-size="8px" fill="#000000" x="73.9085159019599" y="3" font-family="Helvetica Neue, Helvetica, Arial, sans-serif">HAS_CONTAINER</text></g><g class="relationship" transform="translate(512.9677833887704 199.5381261397434) rotate(334.3312916861314)"><path class="b-outline" fill="#A5ABB6" stroke="none" d="M 25 0.5 L 39.320067314744136 0.5 L 39.320067314744136 -0.5 L 25 -0.5 Z M 112.73803606474414 0.5 L 127.05810337948827 0.5 L 127.05810337948827 3.5 L 134.05810337948827 0 L 127.05810337948827 -3.5 L 127.05810337948827 -0.5 L 112.73803606474414 -0.5 Z"/><text text-anchor="middle" pointer-events="none" font-size="8px" fill="#000000" x="76.02905168974414" y="3" font-family="Helvetica Neue, Helvetica, Arial, sans-serif">HAS_CONTAINER</text></g><g class="relationship" transform="translate(389.5526919227474 502.19866638276113) rotate(450.7507715508213)"><path class="b-outline" fill="#A5ABB6" stroke="none" d="M 25 0.5 L 39.10425343808646 0.5 L 39.10425343808646 -0.5 L 25 -0.5 Z M 112.52222218808646 0.5 L 126.62647562617292 0.5 L 126.62647562617292 3.5 L 133.62647562617292 0 L 126.62647562617292 -3.5 L 126.62647562617292 -0.5 L 112.52222218808646 -0.5 Z"/><text text-anchor="middle" pointer-events="none" font-size="8px" fill="#000000" x="75.81323781308646" y="3" transform="rotate(180 75.81323781308646 0)" font-family="Helvetica Neue, Helvetica, Arial, sans-serif">HAS_CONTAINER</text></g><g class="relationship" transform="translate(-381.6593602325076 -476.27228132377917) rotate(231.7683729895728)"><path class="b-outline" fill="#A5ABB6" stroke="none" d="M 25 0.5 L 36.37249561113126 0.5 L 36.37249561113126 -0.5 L 25 -0.5 Z M 109.79046436113126 0.5 L 121.16295997226251 0.5 L 121.16295997226251 3.5 L 128.1629599722625 0 L 121.16295997226251 -3.5 L 121.16295997226251 -0.5 L 109.79046436113126 -0.5 Z"/><text text-anchor="middle" pointer-events="none" font-size="8px" fill="#000000" x="73.08147998613126" y="3" transform="rotate(180 73.08147998613126 0)" font-family="Helvetica Neue, Helvetica, Arial, sans-serif">HAS_CONTAINER</text></g><g class="relationship" transform="translate(-533.2794733199506 -392.08988652511437) rotate(537.1390170076315)"><path class="b-outline" fill="#A5ABB6" stroke="none" d="M 25 0.5 L 36.623083192253745 0.5 L 36.623083192253745 -0.5 L 25 -0.5 Z M 110.04105194225374 0.5 L 121.66413513450749 0.5 L 121.66413513450749 3.5 L 128.6641351345075 0 L 121.66413513450749 -3.5 L 121.66413513450749 -0.5 L 110.04105194225374 -0.5 Z"/><text text-anchor="middle" pointer-events="none" font-size="8px" fill="#000000" x="73.33206756725374" y="3" transform="rotate(180 73.33206756725374 0)" font-family="Helvetica Neue, Helvetica, Arial, sans-serif">HAS_CONTAINER</text></g><g class="relationship" transform="translate(582.6133677600453 -281.36530525958887) rotate(362.9373155390822)"><path class="b-outline" fill="#A5ABB6" stroke="none" d="M 25 0.5 L 34.98042232051192 0.5 L 34.98042232051192 -0.5 L 25 -0.5 Z M 108.39839107051192 0.5 L 118.37881339102384 0.5 L 118.37881339102384 3.5 L 125.37881339102384 0 L 118.37881339102384 -3.5 L 118.37881339102384 -0.5 L 108.39839107051192 -0.5 Z"/><text text-anchor="middle" pointer-events="none" font-size="8px" fill="#000000" x="71.68940669551192" y="3" font-family="Helvetica Neue, Helvetica, Arial, sans-serif">HAS_CONTAINER</text></g><g class="relationship" transform="translate(608.1976618932592 -377.46408912033326) rotate(305.3860485127782)"><path class="b-outline" fill="#A5ABB6" stroke="none" d="M 25 0.5 L 34.451754382530424 0.5 L 34.451754382530424 -0.5 L 25 -0.5 Z M 107.86972313253042 0.5 L 117.32147751506085 0.5 L 117.32147751506085 3.5 L 124.32147751506085 0 L 117.32147751506085 -3.5 L 117.32147751506085 -0.5 L 107.86972313253042 -0.5 Z"/><text text-anchor="middle" pointer-events="none" font-size="8px" fill="#000000" x="71.16073875753042" y="3" font-family="Helvetica Neue, Helvetica, Arial, sans-serif">HAS_CONTAINER</text></g><g class="relationship" transform="translate(387.5819386146063 -462.45054983641955) rotate(279.6220515211676)"><path class="b-outline" fill="#A5ABB6" stroke="none" d="M 25 0.5 L 36.27537313421742 0.5 L 36.27537313421742 -0.5 L 25 -0.5 Z M 109.69334188421742 0.5 L 120.96871501843484 0.5 L 120.96871501843484 3.5 L 127.96871501843484 0 L 120.96871501843484 -3.5 L 120.96871501843484 -0.5 L 109.69334188421742 -0.5 Z"/><text text-anchor="middle" pointer-events="none" font-size="8px" fill="#000000" x="72.98435750921742" y="3" font-family="Helvetica Neue, Helvetica, Arial, sans-serif">HAS_CONTAINER</text></g><g class="relationship" transform="translate(-123.94266730117073 162.47879371196535) rotate(507.81315975416857)"><path class="b-outline" fill="#A5ABB6" stroke="none" d="M 25 0.5 L 88.11737210226399 0.5 L 88.11737210226399 -0.5 L 25 -0.5 Z M 149.99237210226397 0.5 L 213.10974420452797 0.5 L 213.10974420452797 3.5 L 220.10974420452797 0 L 213.10974420452797 -3.5 L 213.10974420452797 -0.5 L 149.99237210226397 -0.5 Z"/><text text-anchor="middle" pointer-events="none" font-size="8px" fill="#000000" x="119.05487210226399" y="3" transform="rotate(180 119.05487210226399 0)" font-family="Helvetica Neue, Helvetica, Arial, sans-serif">HAS_SERVICE</text></g><g class="relationship" transform="translate(-331.382851695328 293.0443197995478) rotate(241.61566944246619)"><path class="b-outline" fill="#A5ABB6" stroke="none" d="M 25 0.5 L 33.75166351646949 0.5 L 33.75166351646949 -0.5 L 25 -0.5 Z M 93.84931976646949 0.5 L 102.60098328293898 0.5 L 102.60098328293898 3.5 L 109.60098328293898 0 L 102.60098328293898 -3.5 L 102.60098328293898 -0.5 L 93.84931976646949 -0.5 Z"/><text text-anchor="middle" pointer-events="none" font-size="8px" fill="#000000" x="63.80049164146949" y="3" transform="rotate(180 63.80049164146949 0)" font-family="Helvetica Neue, Helvetica, Arial, sans-serif">SERVES_POD</text></g><g class="relationship" transform="translate(-123.94266730117073 162.47879371196535) rotate(303.7577042884069)"><path class="b-outline" fill="#A5ABB6" stroke="none" d="M 25 0.5 L 40.68044250586638 0.5 L 40.68044250586638 -0.5 L 25 -0.5 Z M 102.55544250586638 0.5 L 118.23588501173276 0.5 L 118.23588501173276 3.5 L 125.23588501173276 0 L 118.23588501173276 -3.5 L 118.23588501173276 -0.5 L 102.55544250586638 -0.5 Z"/><text text-anchor="middle" pointer-events="none" font-size="8px" fill="#000000" x="71.61794250586638" y="3" font-family="Helvetica Neue, Helvetica, Arial, sans-serif">HAS_SERVICE</text></g><g class="relationship" transform="translate(19.212095939645877 -304.0713854119121) rotate(220.89020759174537)"><path class="b-outline" fill="#A5ABB6" stroke="none" d="M 25 0.5 L 49.81715264698241 0.5 L 49.81715264698241 -0.5 L 25 -0.5 Z M 111.69215264698241 0.5 L 136.50930529396481 0.5 L 136.50930529396481 3.5 L 143.50930529396481 0 L 136.50930529396481 -3.5 L 136.50930529396481 -0.5 L 111.69215264698241 -0.5 Z"/><text text-anchor="middle" pointer-events="none" font-size="8px" fill="#000000" x="80.75465264698241" y="3" transform="rotate(180 80.75465264698241 0)" font-family="Helvetica Neue, Helvetica, Arial, sans-serif">HAS_SERVICE</text></g><g class="relationship" transform="translate(-331.382851695328 293.0443197995478) rotate(416.4378049263026)"><path class="b-outline" fill="#A5ABB6" stroke="none" d="M 25 0.5 L 41.164121813635234 0.5 L 41.164121813635234 -0.5 L 25 -0.5 Z M 101.26177806363523 0.5 L 117.42589987727047 0.5 L 117.42589987727047 3.5 L 124.42589987727047 0 L 117.42589987727047 -3.5 L 117.42589987727047 -0.5 L 101.26177806363523 -0.5 Z"/><text text-anchor="middle" pointer-events="none" font-size="8px" fill="#000000" x="71.21294993863523" y="3" font-family="Helvetica Neue, Helvetica, Arial, sans-serif">SERVES_POD</text></g><g class="relationship" transform="translate(19.212095939645877 -304.0713854119121) rotate(256.94069180951755)"><path class="b-outline" fill="#A5ABB6" stroke="none" d="M 25 0.5 L 39.29997427910803 0.5 L 39.29997427910803 -0.5 L 25 -0.5 Z M 101.17497427910803 0.5 L 115.47494855821606 0.5 L 115.47494855821606 3.5 L 122.47494855821606 0 L 115.47494855821606 -3.5 L 115.47494855821606 -0.5 L 101.17497427910803 -0.5 Z"/><text text-anchor="middle" pointer-events="none" font-size="8px" fill="#000000" x="70.23747427910803" y="3" transform="rotate(180 70.23747427910803 0)" font-family="Helvetica Neue, Helvetica, Arial, sans-serif">HAS_SERVICE</text></g><g class="relationship" transform="translate(-108.17510165423514 -414.3795349740916) rotate(276.51361338050214)"><path class="b-outline" fill="#A5ABB6" stroke="none" d="M 25 0.5 L 33.230587045556646 0.5 L 33.230587045556646 -0.5 L 25 -0.5 Z M 93.32824329555665 0.5 L 101.55883034111329 0.5 L 101.55883034111329 3.5 L 108.55883034111329 0 L 101.55883034111329 -3.5 L 101.55883034111329 -0.5 L 93.32824329555665 -0.5 Z"/><text text-anchor="middle" pointer-events="none" font-size="8px" fill="#000000" x="63.279415170556646" y="3" font-family="Helvetica Neue, Helvetica, Arial, sans-serif">SERVES_POD</text></g><g class="relationship" transform="translate(378.39057203475744 310.46151369662596) rotate(189.82699335971853)"><path class="b-outline" fill="#A5ABB6" stroke="none" d="M 25 0.5 L 38.269530560192834 0.5 L 38.269530560192834 -0.5 L 25 -0.5 Z M 100.14453056019283 0.5 L 113.41406112038567 0.5 L 113.41406112038567 3.5 L 120.41406112038567 0 L 113.41406112038567 -3.5 L 113.41406112038567 -0.5 L 100.14453056019283 -0.5 Z"/><text text-anchor="middle" pointer-events="none" font-size="8px" fill="#000000" x="69.20703056019283" y="3" transform="rotate(180 69.20703056019283 0)" font-family="Helvetica Neue, Helvetica, Arial, sans-serif">HAS_SERVICE</text></g><g class="relationship" transform="translate(-14.111273637458833 -447.73214377088834) rotate(231.53846962137175)"><path class="b-outline" fill="#A5ABB6" stroke="none" d="M 25 0.5 L 29.88718572825219 0.5 L 29.88718572825219 -0.5 L 25 -0.5 Z M 89.98484197825219 0.5 L 94.87202770650438 0.5 L 94.87202770650438 3.5 L 101.87202770650438 0 L 94.87202770650438 -3.5 L 94.87202770650438 -0.5 L 89.98484197825219 -0.5 Z"/><text text-anchor="middle" pointer-events="none" font-size="8px" fill="#000000" x="59.93601385325219" y="3" transform="rotate(180 59.93601385325219 0)" font-family="Helvetica Neue, Helvetica, Arial, sans-serif">SERVES_POD</text></g><g class="relationship" transform="translate(-309.9994217635311 -287.206984781662) rotate(208.98977855700105)"><path class="b-outline" fill="#A5ABB6" stroke="none" d="M 25 0.5 L 39.67631413966032 0.5 L 39.67631413966032 -0.5 L 25 -0.5 Z M 101.55131413966032 0.5 L 116.22762827932064 0.5 L 116.22762827932064 3.5 L 123.22762827932064 0 L 116.22762827932064 -3.5 L 116.22762827932064 -0.5 L 101.55131413966032 -0.5 Z"/><text text-anchor="middle" pointer-events="none" font-size="8px" fill="#000000" x="70.61381413966032" y="3" transform="rotate(180 70.61381413966032 0)" font-family="Helvetica Neue, Helvetica, Arial, sans-serif">HAS_SERVICE</text></g><g class="relationship" transform="translate(235.11008425499037 285.64315369610864) rotate(460.5555233134903)"><path class="b-outline" fill="#A5ABB6" stroke="none" d="M 25 0.5 L 35.04336441659157 0.5 L 35.04336441659157 -0.5 L 25 -0.5 Z M 95.14102066659157 0.5 L 105.18438508318314 0.5 L 105.18438508318314 3.5 L 112.18438508318314 0 L 105.18438508318314 -3.5 L 105.18438508318314 -0.5 L 95.14102066659157 -0.5 Z"/><text text-anchor="middle" pointer-events="none" font-size="8px" fill="#000000" x="65.09219254159157" y="3" transform="rotate(180 65.09219254159157 0)" font-family="Helvetica Neue, Helvetica, Arial, sans-serif">SERVES_POD</text></g><g class="relationship" transform="translate(-309.9994217635311 -287.206984781662) rotate(537.8498918038293)"><path class="b-outline" fill="#A5ABB6" stroke="none" d="M 25 0.5 L 60.624778718015946 0.5 L 60.624778718015946 -0.5 L 25 -0.5 Z M 122.49977871801595 0.5 L 158.1245574360319 0.5 L 158.1245574360319 3.5 L 165.1245574360319 0 L 158.1245574360319 -3.5 L 158.1245574360319 -0.5 L 122.49977871801595 -0.5 Z"/><text text-anchor="middle" pointer-events="none" font-size="8px" fill="#000000" x="91.56227871801595" y="3" transform="rotate(180 91.56227871801595 0)" font-family="Helvetica Neue, Helvetica, Arial, sans-serif">HAS_SERVICE</text></g><g class="relationship" transform="translate(-439.6550445934333 -359.04603581870316) rotate(296.3231183720467)"><path class="b-outline" fill="#A5ABB6" stroke="none" d="M 25 0.5 L 31.84515485453045 0.5 L 31.84515485453045 -0.5 L 25 -0.5 Z M 91.94281110453045 0.5 L 98.7879659590609 0.5 L 98.7879659590609 3.5 L 105.7879659590609 0 L 98.7879659590609 -3.5 L 98.7879659590609 -0.5 L 91.94281110453045 -0.5 Z"/><text text-anchor="middle" pointer-events="none" font-size="8px" fill="#000000" x="61.89398297953045" y="3" font-family="Helvetica Neue, Helvetica, Arial, sans-serif">SERVES_POD</text></g><g class="relationship" transform="translate(422.78488301840247 -276.8946120755098) rotate(298.9929086155672)"><path class="b-outline" fill="#A5ABB6" stroke="none" d="M 25 0.5 L 55.31506520137755 0.5 L 55.31506520137755 -0.5 L 25 -0.5 Z M 117.19006520137755 0.5 L 147.5051304027551 0.5 L 147.5051304027551 3.5 L 154.5051304027551 0 L 147.5051304027551 -3.5 L 147.5051304027551 -0.5 L 117.19006520137755 -0.5 Z"/><text text-anchor="middle" pointer-events="none" font-size="8px" fill="#000000" x="86.25256520137755" y="3" font-family="Helvetica Neue, Helvetica, Arial, sans-serif">HAS_SERVICE</text></g><g class="relationship" transform="translate(-499.990124809721 -280.07395623402084) rotate(253.4488901545601)"><path class="b-outline" fill="#A5ABB6" stroke="none" d="M 25 0.5 L 26.880080309127557 0.5 L 26.880080309127557 -0.5 L 25 -0.5 Z M 82.97773655912755 0.5 L 84.85781686825511 0.5 L 84.85781686825511 3.5 L 91.85781686825511 0 L 84.85781686825511 -3.5 L 84.85781686825511 -0.5 L 82.97773655912755 -0.5 Z"/><text text-anchor="middle" pointer-events="none" font-size="8px" fill="#000000" x="54.92890843412756" y="3" transform="rotate(180 54.92890843412756 0)" font-family="Helvetica Neue, Helvetica, Arial, sans-serif">SERVES_P…</text></g><g class="relationship" transform="translate(509.7912650355039 -433.90410646742333) rotate(424.48016640705555)"><path class="b-outline" fill="#A5ABB6" stroke="none" d="M 25 0.5 L 50.96617722781724 0.5 L 50.96617722781724 -0.5 L 25 -0.5 Z M 111.06383347781724 0.5 L 137.03001070563448 0.5 L 137.03001070563448 3.5 L 144.03001070563448 0 L 137.03001070563448 -3.5 L 137.03001070563448 -0.5 L 111.06383347781724 -0.5 Z"/><text text-anchor="middle" pointer-events="none" font-size="8px" fill="#000000" x="81.01500535281724" y="3" font-family="Helvetica Neue, Helvetica, Arial, sans-serif">SERVES_POD</text></g><g class="relationship" transform="translate(509.7912650355039 -433.90410646742333) rotate(389.83600107315664)"><path class="b-outline" fill="#A5ABB6" stroke="none" d="M 25 0.5 L 25.172628354593925 0.5 L 25.172628354593925 -0.5 L 25 -0.5 Z M 81.27028460459393 0.5 L 81.44291295918785 0.5 L 81.44291295918785 3.5 L 88.44291295918785 0 L 81.44291295918785 -3.5 L 81.44291295918785 -0.5 L 81.27028460459393 -0.5 Z"/><text text-anchor="middle" pointer-events="none" font-size="8px" fill="#000000" x="53.221456479593925" y="3" font-family="Helvetica Neue, Helvetica, Arial, sans-serif">SERVES_P…</text></g><g class="relationship" transform="translate(509.7912650355039 -433.90410646742333) rotate(193.14777553027636)"><path class="b-outline" fill="#A5ABB6" stroke="none" d="M 25 0.5 L 29.200711501336706 0.5 L 29.200711501336706 -0.5 L 25 -0.5 Z M 89.29836775133671 0.5 L 93.49907925267341 0.5 L 93.49907925267341 3.5 L 100.49907925267341 0 L 93.49907925267341 -3.5 L 93.49907925267341 -0.5 L 89.29836775133671 -0.5 Z"/><text text-anchor="middle" pointer-events="none" font-size="8px" fill="#000000" x="59.249539626336706" y="3" transform="rotate(180 59.249539626336706 0)" font-family="Helvetica Neue, Helvetica, Arial, sans-serif">SERVES_POD</text></g><g class="relationship" transform="translate(-123.94266730117073 162.47879371196535) rotate(265.467686153817)"><path class="b-outline" fill="#A5ABB6" stroke="none" d="M 25 0.5 L 43.01767624748075 0.5 L 43.01767624748075 -0.5 L 25 -0.5 Z M 102.36533249748075 0.5 L 120.3830087449615 0.5 L 120.3830087449615 3.5 L 127.3830087449615 0 L 120.3830087449615 -3.5 L 120.3830087449615 -0.5 L 102.36533249748075 -0.5 Z"/><text text-anchor="middle" pointer-events="none" font-size="8px" fill="#000000" x="72.69150437248075" y="3" transform="rotate(180 72.69150437248075 0)" font-family="Helvetica Neue, Helvetica, Arial, sans-serif">HAS_SECRET</text></g><g class="relationship" transform="translate(-123.94266730117073 162.47879371196535) rotate(419.2247781875008)"><path class="b-outline" fill="#A5ABB6" stroke="none" d="M 25 0.5 L 44.50395198962073 0.5 L 44.50395198962073 -0.5 L 25 -0.5 Z M 103.85160823962073 0.5 L 123.35556022924146 0.5 L 123.35556022924146 3.5 L 130.35556022924146 0 L 123.35556022924146 -3.5 L 123.35556022924146 -0.5 L 103.85160823962073 -0.5 Z"/><text text-anchor="middle" pointer-events="none" font-size="8px" fill="#000000" x="74.17778011462073" y="3" font-family="Helvetica Neue, Helvetica, Arial, sans-serif">HAS_SECRET</text></g><g class="relationship" transform="translate(-123.94266730117073 162.47879371196535) rotate(228.29313422816244)"><path class="b-outline" fill="#A5ABB6" stroke="none" d="M 25 0.5 L 45.951268931391894 0.5 L 45.951268931391894 -0.5 L 25 -0.5 Z M 105.2989251813919 0.5 L 126.25019411278379 0.5 L 126.25019411278379 3.5 L 133.2501941127838 0 L 126.25019411278379 -3.5 L 126.25019411278379 -0.5 L 105.2989251813919 -0.5 Z"/><text text-anchor="middle" pointer-events="none" font-size="8px" fill="#000000" x="75.6250970563919" y="3" transform="rotate(180 75.6250970563919 0)" font-family="Helvetica Neue, Helvetica, Arial, sans-serif">HAS_SECRET</text></g><g class="relationship" transform="translate(-123.94266730117073 162.47879371196535) rotate(342.5899000584484)"><path class="b-outline" fill="#A5ABB6" stroke="none" d="M 25 0.5 L 41.18861605783047 0.5 L 41.18861605783047 -0.5 L 25 -0.5 Z M 100.53627230783047 0.5 L 116.72488836566095 0.5 L 116.72488836566095 3.5 L 123.72488836566095 0 L 116.72488836566095 -3.5 L 116.72488836566095 -0.5 L 100.53627230783047 -0.5 Z"/><text text-anchor="middle" pointer-events="none" font-size="8px" fill="#000000" x="70.86244418283047" y="3" font-family="Helvetica Neue, Helvetica, Arial, sans-serif">HAS_SECRET</text></g><g class="relationship" transform="translate(-123.94266730117073 162.47879371196535) rotate(452.1574886825341)"><path class="b-outline" fill="#A5ABB6" stroke="none" d="M 25 0.5 L 57.75451639753484 0.5 L 57.75451639753484 -0.5 L 25 -0.5 Z M 117.10217264753484 0.5 L 149.8566890450697 0.5 L 149.8566890450697 3.5 L 156.8566890450697 0 L 149.8566890450697 -3.5 L 149.8566890450697 -0.5 L 117.10217264753484 -0.5 Z"/><text text-anchor="middle" pointer-events="none" font-size="8px" fill="#000000" x="87.42834452253484" y="3" transform="rotate(180 87.42834452253484 0)" font-family="Helvetica Neue, Helvetica, Arial, sans-serif">HAS_SECRET</text></g><g class="relationship" transform="translate(-123.94266730117073 162.47879371196535) rotate(192.62931105292336)"><path class="b-outline" fill="#A5ABB6" stroke="none" d="M 25 0.5 L 49.17857945188811 0.5 L 49.17857945188811 -0.5 L 25 -0.5 Z M 108.52623570188811 0.5 L 132.70481515377622 0.5 L 132.70481515377622 3.5 L 139.70481515377622 0 L 132.70481515377622 -3.5 L 132.70481515377622 -0.5 L 108.52623570188811 -0.5 Z"/><text text-anchor="middle" pointer-events="none" font-size="8px" fill="#000000" x="78.85240757688811" y="3" transform="rotate(180 78.85240757688811 0)" font-family="Helvetica Neue, Helvetica, Arial, sans-serif">HAS_SECRET</text></g><g class="relationship" transform="translate(-123.94266730117073 162.47879371196535) rotate(516.2771922140373)"><path class="b-outline" fill="#A5ABB6" stroke="none" d="M 25 0.5 L 41.898343253319965 0.5 L 41.898343253319965 -0.5 L 25 -0.5 Z M 101.24599950331996 0.5 L 118.14434275663993 0.5 L 118.14434275663993 3.5 L 125.14434275663993 0 L 118.14434275663993 -3.5 L 118.14434275663993 -0.5 L 101.24599950331996 -0.5 Z"/><text text-anchor="middle" pointer-events="none" font-size="8px" fill="#000000" x="71.57217137831996" y="3" transform="rotate(180 71.57217137831996 0)" font-family="Helvetica Neue, Helvetica, Arial, sans-serif">HAS_SECRET</text></g><g class="relationship" transform="translate(-123.94266730117073 162.47879371196535) rotate(485.50719042462197)"><path class="b-outline" fill="#A5ABB6" stroke="none" d="M 25 0.5 L 62.93864680938913 0.5 L 62.93864680938913 -0.5 L 25 -0.5 Z M 122.28630305938913 0.5 L 160.22494986877825 0.5 L 160.22494986877825 3.5 L 167.22494986877825 0 L 160.22494986877825 -3.5 L 160.22494986877825 -0.5 L 122.28630305938913 -0.5 Z"/><text text-anchor="middle" pointer-events="none" font-size="8px" fill="#000000" x="92.61247493438913" y="3" transform="rotate(180 92.61247493438913 0)" font-family="Helvetica Neue, Helvetica, Arial, sans-serif">HAS_SECRET</text></g><g class="relationship" transform="translate(-123.94266730117073 162.47879371196535) rotate(381.4896509878216)"><path class="b-outline" fill="#A5ABB6" stroke="none" d="M 25 0.5 L 42.17681612437765 0.5 L 42.17681612437765 -0.5 L 25 -0.5 Z M 101.52447237437765 0.5 L 118.7012884987553 0.5 L 118.7012884987553 3.5 L 125.7012884987553 0 L 118.7012884987553 -3.5 L 118.7012884987553 -0.5 L 101.52447237437765 -0.5 Z"/><text text-anchor="middle" pointer-events="none" font-size="8px" fill="#000000" x="71.85064424937765" y="3" font-family="Helvetica Neue, Helvetica, Arial, sans-serif">HAS_SECRET</text></g><g class="relationship" transform="translate(-123.94266730117073 162.47879371196535) rotate(474.750442777365)"><path class="b-outline" fill="#A5ABB6" stroke="none" d="M 25 0.5 L 26.131609909671923 0.5 L 26.131609909671923 -0.5 L 25 -0.5 Z M 66.36598490967192 0.5 L 67.49759481934385 0.5 L 67.49759481934385 3.5 L 74.49759481934385 0 L 67.49759481934385 -3.5 L 67.49759481934385 -0.5 L 66.36598490967192 -0.5 Z"/><text text-anchor="middle" pointer-events="none" font-size="8px" fill="#000000" x="46.24879740967192" y="3" transform="rotate(180 46.24879740967192 0)" font-family="Helvetica Neue, Helvetica, Arial, sans-serif">HAS_S…</text></g><g class="relationship" transform="translate(19.212095939645877 -304.0713854119121) rotate(184.82232921413896)"><path class="b-outline" fill="#A5ABB6" stroke="none" d="M 25 0.5 L 39.29987854694781 0.5 L 39.29987854694781 -0.5 L 25 -0.5 Z M 98.64753479694781 0.5 L 112.94741334389562 0.5 L 112.94741334389562 3.5 L 119.94741334389562 0 L 112.94741334389562 -3.5 L 112.94741334389562 -0.5 L 98.64753479694781 -0.5 Z"/><text text-anchor="middle" pointer-events="none" font-size="8px" fill="#000000" x="68.97370667194781" y="3" transform="rotate(180 68.97370667194781 0)" font-family="Helvetica Neue, Helvetica, Arial, sans-serif">HAS_SECRET</text></g><g class="relationship" transform="translate(-309.9994217635311 -287.206984781662) rotate(506.5413289029405)"><path class="b-outline" fill="#A5ABB6" stroke="none" d="M 25 0.5 L 45.65001274088654 0.5 L 45.65001274088654 -0.5 L 25 -0.5 Z M 104.99766899088654 0.5 L 125.64768173177308 0.5 L 125.64768173177308 3.5 L 132.64768173177308 0 L 125.64768173177308 -3.5 L 125.64768173177308 -0.5 L 104.99766899088654 -0.5 Z"/><text text-anchor="middle" pointer-events="none" font-size="8px" fill="#000000" x="75.32384086588654" y="3" transform="rotate(180 75.32384086588654 0)" font-family="Helvetica Neue, Helvetica, Arial, sans-serif">HAS_SECRET</text></g><g class="relationship" transform="translate(-309.9994217635311 -287.206984781662) rotate(397.9730201250666)"><path class="b-outline" fill="#A5ABB6" stroke="none" d="M 25 0.5 L 35.004532910411626 0.5 L 35.004532910411626 -0.5 L 25 -0.5 Z M 94.35218916041163 0.5 L 104.35672207082325 0.5 L 104.35672207082325 3.5 L 111.35672207082325 0 L 104.35672207082325 -3.5 L 104.35672207082325 -0.5 L 94.35218916041163 -0.5 Z"/><text text-anchor="middle" pointer-events="none" font-size="8px" fill="#000000" x="64.67836103541163" y="3" font-family="Helvetica Neue, Helvetica, Arial, sans-serif">HAS_SECRET</text></g><g class="relationship" transform="translate(-309.9994217635311 -287.206984781662) rotate(468.7884545969943)"><path class="b-outline" fill="#A5ABB6" stroke="none" d="M 25 0.5 L 41.49391791090004 0.5 L 41.49391791090004 -0.5 L 25 -0.5 Z M 100.84157416090004 0.5 L 117.33549207180008 0.5 L 117.33549207180008 3.5 L 124.33549207180008 0 L 117.33549207180008 -3.5 L 117.33549207180008 -0.5 L 100.84157416090004 -0.5 Z"/><text text-anchor="middle" pointer-events="none" font-size="8px" fill="#000000" x="71.16774603590004" y="3" transform="rotate(180 71.16774603590004 0)" font-family="Helvetica Neue, Helvetica, Arial, sans-serif">HAS_SECRET</text></g></g><g class="layer nodes"><g class="node" aria-label="graph-node0" transform="translate(221.09650010942937,-28.69999498048442)"><circle class="b-outline" cx="0" cy="0" r="25" fill="#57C7E3" stroke="#23b3d7" stroke-width="2px"/><text class="caption" text-anchor="middle" pointer-events="none" x="0" y="5" font-size="10px" fill="#2A2C34" font-family="Helvetica Neue, Helvetica, Arial, sans-serif"> minikube</text></g><g class="node" aria-label="graph-node1" transform="translate(-123.94266730117073,162.47879371196535)"><circle class="b-outline" cx="0" cy="0" r="25" fill="#F16667" stroke="#eb2728" stroke-width="2px"/><text class="caption" text-anchor="middle" pointer-events="none" x="0" y="5" font-size="10px" fill="#FFFFFF" font-family="Helvetica Neue, Helvetica, Arial, sans-serif"> default</text></g><g class="node" aria-label="graph-node2" transform="translate(19.212095939645877,-304.0713854119121)"><circle class="b-outline" cx="0" cy="0" r="25" fill="#F16667" stroke="#eb2728" stroke-width="2px"/><text class="caption" text-anchor="middle" pointer-events="none" x="0" y="5" font-size="10px" fill="#FFFFFF" font-family="Helvetica Neue, Helvetica, Arial, sans-serif"> ingress-…</text></g><g class="node" aria-label="graph-node3" transform="translate(364.8709786494131,-50.772155695490945)"><circle class="b-outline" cx="0" cy="0" r="25" fill="#F16667" stroke="#eb2728" stroke-width="2px"/><text class="caption" text-anchor="middle" pointer-events="none" x="0" y="5" font-size="10px" fill="#FFFFFF" font-family="Helvetica Neue, Helvetica, Arial, sans-serif"> kube-no…</text></g><g class="node" aria-label="graph-node4" transform="translate(191.15861762539666,-171.28113412765885)"><circle class="b-outline" cx="0" cy="0" r="25" fill="#F16667" stroke="#eb2728" stroke-width="2px"/><text class="caption" text-anchor="middle" pointer-events="none" x="0" y="5" font-size="10px" fill="#FFFFFF" font-family="Helvetica Neue, Helvetica, Arial, sans-serif"> kube-pu…</text></g><g class="node" aria-label="graph-node5" transform="translate(378.39057203475744,310.46151369662596)"><circle class="b-outline" cx="0" cy="0" r="25" fill="#F16667" stroke="#eb2728" stroke-width="2px"/><text class="caption" text-anchor="middle" pointer-events="none" x="0" y="5" font-size="10px" fill="#FFFFFF" font-family="Helvetica Neue, Helvetica, Arial, sans-serif"> kube-sy…</text></g><g class="node" aria-label="graph-node6" transform="translate(-309.9994217635311,-287.206984781662)"><circle class="b-outline" cx="0" cy="0" r="25" fill="#F16667" stroke="#eb2728" stroke-width="2px"/><text class="caption" text-anchor="middle" pointer-events="none" x="0" y="5" font-size="10px" fill="#FFFFFF" font-family="Helvetica Neue, Helvetica, Arial, sans-serif"> kubernet…</text></g><g class="node" aria-label="graph-node7" transform="translate(422.78488301840247,-276.8946120755098)"><circle class="b-outline" cx="0" cy="0" r="25" fill="#F16667" stroke="#eb2728" stroke-width="2px"/><text class="caption" text-anchor="middle" pointer-events="none" x="0" y="5" font-size="10px" fill="#FFFFFF" font-family="Helvetica Neue, Helvetica, Arial, sans-serif"> sample</text></g><g class="node" aria-label="graph-node8" transform="translate(308.405856924137,-146.106394437883)"><circle class="b-outline" cx="0" cy="0" r="25" fill="#F16667" stroke="#eb2728" stroke-width="2px"/><text class="caption" text-anchor="middle" pointer-events="none" x="0" y="5" font-size="10px" fill="#FFFFFF" font-family="Helvetica Neue, Helvetica, Arial, sans-serif"> staging</text></g><g class="node" aria-label="graph-node10" transform="translate(-395.36995465805984,174.62525311191183)"><circle class="b-outline" cx="0" cy="0" r="25" fill="#8DCC93" stroke="#5db665" stroke-width="2px"/><text class="caption" text-anchor="middle" pointer-events="none" x="0" y="5" font-size="10px" fill="#2A2C34" font-family="Helvetica Neue, Helvetica, Arial, sans-serif"> staging-f…</text></g><g class="node" aria-label="graph-node11" transform="translate(-248.77396071506465,417.5588598546876)"><circle class="b-outline" cx="0" cy="0" r="25" fill="#8DCC93" stroke="#5db665" stroke-width="2px"/><text class="caption" text-anchor="middle" pointer-events="none" x="0" y="5" font-size="10px" fill="#2A2C34" font-family="Helvetica Neue, Helvetica, Arial, sans-serif"> staging-f…</text></g><g class="node" aria-label="graph-node12" transform="translate(144.50004172855247,-417.7261767419141)"><circle class="b-outline" cx="0" cy="0" r="25" fill="#8DCC93" stroke="#5db665" stroke-width="2px"/><text class="caption" text-anchor="middle" pointer-events="none" x="0" y="5" font-size="10px" fill="#2A2C34" font-family="Helvetica Neue, Helvetica, Arial, sans-serif"> ingress-…</text></g><g class="node" aria-label="graph-node13" transform="translate(75.90473082408268,-489.92288146700105)"><circle class="b-outline" cx="0" cy="0" r="25" fill="#8DCC93" stroke="#5db665" stroke-width="2px"/><text class="caption" text-anchor="middle" pointer-events="none" x="0" y="5" font-size="10px" fill="#2A2C34" font-family="Helvetica Neue, Helvetica, Arial, sans-serif"> ingress-…</text></g><g class="node" aria-label="graph-node14" transform="translate(-93.02428389351651,-547.0762338149738)"><circle class="b-outline" cx="0" cy="0" r="25" fill="#8DCC93" stroke="#5db665" stroke-width="2px"/><text class="caption" text-anchor="middle" pointer-events="none" x="0" y="5" font-size="10px" fill="#2A2C34" font-family="Helvetica Neue, Helvetica, Arial, sans-serif"> ingress-…</text></g><g class="node" aria-label="graph-node15" transform="translate(209.9795130749217,420.5060837503477)"><circle class="b-outline" cx="0" cy="0" r="25" fill="#8DCC93" stroke="#5db665" stroke-width="2px"/><text class="caption" text-anchor="middle" pointer-events="none" x="0" y="5" font-size="10px" fill="#2A2C34" font-family="Helvetica Neue, Helvetica, Arial, sans-serif"> coredns-…</text></g><g class="node" aria-label="graph-node16" transform="translate(294.76292061697984,472.39228458521825)"><circle class="b-outline" cx="0" cy="0" r="25" fill="#8DCC93" stroke="#5db665" stroke-width="2px"/><text class="caption" text-anchor="middle" pointer-events="none" x="0" y="5" font-size="10px" fill="#2A2C34" font-family="Helvetica Neue, Helvetica, Arial, sans-serif"> etcd-min…</text></g><g class="node" aria-label="graph-node17" transform="translate(543.0867403401916,385.43348409888483)"><circle class="b-outline" cx="0" cy="0" r="25" fill="#8DCC93" stroke="#5db665" stroke-width="2px"/><text class="caption" text-anchor="middle" pointer-events="none" x="0" y="5" font-size="10px" fill="#2A2C34" font-family="Helvetica Neue, Helvetica, Arial, sans-serif"> kindnet-l…</text></g><g class="node" aria-label="graph-node18" transform="translate(559.67938489533,287.5526169728821)"><circle class="b-outline" cx="0" cy="0" r="25" fill="#8DCC93" stroke="#5db665" stroke-width="2px"/><text class="caption" text-anchor="middle" pointer-events="none" x="0" y="5" font-size="10px" fill="#2A2C34" font-family="Helvetica Neue, Helvetica, Arial, sans-serif"> kube-api…</text></g><g class="node" aria-label="graph-node19" transform="translate(481.14907474964053,462.91106897229525)"><circle class="b-outline" cx="0" cy="0" r="25" fill="#8DCC93" stroke="#5db665" stroke-width="2px"/><text class="caption" text-anchor="middle" pointer-events="none" x="0" y="5" font-size="10px" fill="#2A2C34" font-family="Helvetica Neue, Helvetica, Arial, sans-serif"> kube-co…</text></g><g class="node" aria-label="graph-node20" transform="translate(422.82288982771655,156.77231406133504)"><circle class="b-outline" cx="0" cy="0" r="25" fill="#8DCC93" stroke="#5db665" stroke-width="2px"/><text class="caption" text-anchor="middle" pointer-events="none" x="0" y="5" font-size="10px" fill="#2A2C34" font-family="Helvetica Neue, Helvetica, Arial, sans-serif"> kube-pro…</text></g><g class="node" aria-label="graph-node21" transform="translate(512.9677833887704,199.5381261397434)"><circle class="b-outline" cx="0" cy="0" r="25" fill="#8DCC93" stroke="#5db665" stroke-width="2px"/><text class="caption" text-anchor="middle" pointer-events="none" x="0" y="5" font-size="10px" fill="#2A2C34" font-family="Helvetica Neue, Helvetica, Arial, sans-serif"> kube-sc…</text></g><g class="node" aria-label="graph-node22" transform="translate(389.5526919227474,502.19866638276113)"><circle class="b-outline" cx="0" cy="0" r="25" fill="#8DCC93" stroke="#5db665" stroke-width="2px"/><text class="caption" text-anchor="middle" pointer-events="none" x="0" y="5" font-size="10px" fill="#2A2C34" font-family="Helvetica Neue, Helvetica, Arial, sans-serif"> storage-…</text></g><g class="node" aria-label="graph-node23" transform="translate(-381.6593602325076,-476.27228132377917)"><circle class="b-outline" cx="0" cy="0" r="25" fill="#8DCC93" stroke="#5db665" stroke-width="2px"/><text class="caption" text-anchor="middle" pointer-events="none" x="0" y="5" font-size="10px" fill="#2A2C34" font-family="Helvetica Neue, Helvetica, Arial, sans-serif"> dashboa…</text></g><g class="node" aria-label="graph-node24" transform="translate(-533.2794733199506,-392.08988652511437)"><circle class="b-outline" cx="0" cy="0" r="25" fill="#8DCC93" stroke="#5db665" stroke-width="2px"/><text class="caption" text-anchor="middle" pointer-events="none" x="0" y="5" font-size="10px" fill="#2A2C34" font-family="Helvetica Neue, Helvetica, Arial, sans-serif"> kubernet…</text></g><g class="node" aria-label="graph-node25" transform="translate(582.6133677600453,-281.36530525958887)"><circle class="b-outline" cx="0" cy="0" r="25" fill="#8DCC93" stroke="#5db665" stroke-width="2px"/><text class="caption" text-anchor="middle" pointer-events="none" x="0" y="5" font-size="10px" fill="#2A2C34" font-family="Helvetica Neue, Helvetica, Arial, sans-serif"> web-dep…</text></g><g class="node" aria-label="graph-node26" transform="translate(608.1976618932592,-377.46408912033326)"><circle class="b-outline" cx="0" cy="0" r="25" fill="#8DCC93" stroke="#5db665" stroke-width="2px"/><text class="caption" text-anchor="middle" pointer-events="none" x="0" y="5" font-size="10px" fill="#2A2C34" font-family="Helvetica Neue, Helvetica, Arial, sans-serif"> web-dep…</text></g><g class="node" aria-label="graph-node27" transform="translate(387.5819386146063,-462.45054983641955)"><circle class="b-outline" cx="0" cy="0" r="25" fill="#8DCC93" stroke="#5db665" stroke-width="2px"/><text class="caption" text-anchor="middle" pointer-events="none" x="0" y="5" font-size="10px" fill="#2A2C34" font-family="Helvetica Neue, Helvetica, Arial, sans-serif"> web-dep…</text></g><g class="node" aria-label="graph-node28" transform="translate(-554.4346371991497,158.90689058119835)"><circle class="b-outline" cx="0" cy="0" r="25" fill="#FFC454" stroke="#d7a013" stroke-width="2px"/><text class="caption" text-anchor="middle" pointer-events="none" x="0" y="5" font-size="10px" fill="#2A2C34" font-family="Helvetica Neue, Helvetica, Arial, sans-serif"> metrics</text></g><g class="node" aria-label="graph-node29" transform="translate(-533.958027079332,256.32477852741624)"><circle class="b-outline" cx="0" cy="0" r="25" fill="#FFC454" stroke="#d7a013" stroke-width="2px"/><text class="caption" text-anchor="middle" pointer-events="none" x="0" y="5" font-size="10px" fill="#2A2C34" font-family="Helvetica Neue, Helvetica, Arial, sans-serif"> staging-f…</text></g><g class="node" aria-label="graph-node30" transform="translate(-286.22000882460634,570.1262074699395)"><circle class="b-outline" cx="0" cy="0" r="25" fill="#FFC454" stroke="#d7a013" stroke-width="2px"/><text class="caption" text-anchor="middle" pointer-events="none" x="0" y="5" font-size="10px" fill="#2A2C34" font-family="Helvetica Neue, Helvetica, Arial, sans-serif"> metrics</text></g><g class="node" aria-label="graph-node31" transform="translate(-371.36200520190624,518.2826988213773)"><circle class="b-outline" cx="0" cy="0" r="25" fill="#FFC454" stroke="#d7a013" stroke-width="2px"/><text class="caption" text-anchor="middle" pointer-events="none" x="0" y="5" font-size="10px" fill="#2A2C34" font-family="Helvetica Neue, Helvetica, Arial, sans-serif"> staging-f…</text></g><g class="node" aria-label="graph-node32" transform="translate(204.8003896203634,-561.9784556476668)"><circle class="b-outline" cx="0" cy="0" r="25" fill="#FFC454" stroke="#d7a013" stroke-width="2px"/><text class="caption" text-anchor="middle" pointer-events="none" x="0" y="5" font-size="10px" fill="#2A2C34" font-family="Helvetica Neue, Helvetica, Arial, sans-serif"> create</text></g><g class="node" aria-label="graph-node33" transform="translate(80.28928046961168,-650.1225152616177)"><circle class="b-outline" cx="0" cy="0" r="25" fill="#FFC454" stroke="#d7a013" stroke-width="2px"/><text class="caption" text-anchor="middle" pointer-events="none" x="0" y="5" font-size="10px" fill="#2A2C34" font-family="Helvetica Neue, Helvetica, Arial, sans-serif"> patch</text></g><g class="node" aria-label="graph-node34" transform="translate(-154.078285127644,-688.8850713177965)"><circle class="b-outline" cx="0" cy="0" r="25" fill="#FFC454" stroke="#d7a013" stroke-width="2px"/><text class="caption" text-anchor="middle" pointer-events="none" x="0" y="5" font-size="10px" fill="#2A2C34" font-family="Helvetica Neue, Helvetica, Arial, sans-serif"> controller</text></g><g class="node" aria-label="graph-node35" transform="translate(124.33681738656003,554.2808127717865)"><circle class="b-outline" cx="0" cy="0" r="25" fill="#FFC454" stroke="#d7a013" stroke-width="2px"/><text class="caption" text-anchor="middle" pointer-events="none" x="0" y="5" font-size="10px" fill="#2A2C34" font-family="Helvetica Neue, Helvetica, Arial, sans-serif"> coredns</text></g><g class="node" aria-label="graph-node36" transform="translate(241.83780825554143,624.5453085638693)"><circle class="b-outline" cx="0" cy="0" r="25" fill="#FFC454" stroke="#d7a013" stroke-width="2px"/><text class="caption" text-anchor="middle" pointer-events="none" x="0" y="5" font-size="10px" fill="#2A2C34" font-family="Helvetica Neue, Helvetica, Arial, sans-serif"> etcd</text></g><g class="node" aria-label="graph-node37" transform="translate(687.6808497886187,442.4214695428381)"><circle class="b-outline" cx="0" cy="0" r="25" fill="#FFC454" stroke="#d7a013" stroke-width="2px"/><text class="caption" text-anchor="middle" pointer-events="none" x="0" y="5" font-size="10px" fill="#2A2C34" font-family="Helvetica Neue, Helvetica, Arial, sans-serif"> kindnet-…</text></g><g class="node" aria-label="graph-node38" transform="translate(715.848448322724,271.00400066577765)"><circle class="b-outline" cx="0" cy="0" r="25" fill="#FFC454" stroke="#d7a013" stroke-width="2px"/><text class="caption" text-anchor="middle" pointer-events="none" x="0" y="5" font-size="10px" fill="#2A2C34" font-family="Helvetica Neue, Helvetica, Arial, sans-serif"> kube-api…</text></g><g class="node" aria-label="graph-node39" transform="translate(556.573258113571,599.3466135161759)"><circle class="b-outline" cx="0" cy="0" r="25" fill="#FFC454" stroke="#d7a013" stroke-width="2px"/><text class="caption" text-anchor="middle" pointer-events="none" x="0" y="5" font-size="10px" fill="#2A2C34" font-family="Helvetica Neue, Helvetica, Arial, sans-serif"> kube-co…</text></g><g class="node" aria-label="graph-node40" transform="translate(536.7135175572053,51.90459618801174)"><circle class="b-outline" cx="0" cy="0" r="25" fill="#FFC454" stroke="#d7a013" stroke-width="2px"/><text class="caption" text-anchor="middle" pointer-events="none" x="0" y="5" font-size="10px" fill="#2A2C34" font-family="Helvetica Neue, Helvetica, Arial, sans-serif"> kube-pro…</text></g><g class="node" aria-label="graph-node41" transform="translate(656.3290353202385,130.6394200900497)"><circle class="b-outline" cx="0" cy="0" r="25" fill="#FFC454" stroke="#d7a013" stroke-width="2px"/><text class="caption" text-anchor="middle" pointer-events="none" x="0" y="5" font-size="10px" fill="#2A2C34" font-family="Helvetica Neue, Helvetica, Arial, sans-serif"> kube-sc…</text></g><g class="node" aria-label="graph-node42" transform="translate(387.4741996127556,660.8115241191317)"><circle class="b-outline" cx="0" cy="0" r="25" fill="#FFC454" stroke="#d7a013" stroke-width="2px"/><text class="caption" text-anchor="middle" pointer-events="none" x="0" y="5" font-size="10px" fill="#2A2C34" font-family="Helvetica Neue, Helvetica, Arial, sans-serif"> storage-…</text></g><g class="node" aria-label="graph-node43" transform="translate(-476.4430465784236,-596.5841473642654)"><circle class="b-outline" cx="0" cy="0" r="25" fill="#FFC454" stroke="#d7a013" stroke-width="2px"/><text class="caption" text-anchor="middle" pointer-events="none" x="0" y="5" font-size="10px" fill="#2A2C34" font-family="Helvetica Neue, Helvetica, Arial, sans-serif"> dashboa…</text></g><g class="node" aria-label="graph-node44" transform="translate(-686.752078119589,-384.420075402916)"><circle class="b-outline" cx="0" cy="0" r="25" fill="#FFC454" stroke="#d7a013" stroke-width="2px"/><text class="caption" text-anchor="middle" pointer-events="none" x="0" y="5" font-size="10px" fill="#2A2C34" font-family="Helvetica Neue, Helvetica, Arial, sans-serif"> kubernet…</text></g><g class="node" aria-label="graph-node45" transform="translate(732.7946127525721,-273.6593874435842)"><circle class="b-outline" cx="0" cy="0" r="25" fill="#FFC454" stroke="#d7a013" stroke-width="2px"/><text class="caption" text-anchor="middle" pointer-events="none" x="0" y="5" font-size="10px" fill="#2A2C34" font-family="Helvetica Neue, Helvetica, Arial, sans-serif"> web-app…</text></g><g class="node" aria-label="graph-node46" transform="translate(694.667142087468,-499.20123481639496)"><circle class="b-outline" cx="0" cy="0" r="25" fill="#FFC454" stroke="#d7a013" stroke-width="2px"/><text class="caption" text-anchor="middle" pointer-events="none" x="0" y="5" font-size="10px" fill="#2A2C34" font-family="Helvetica Neue, Helvetica, Arial, sans-serif"> web-app…</text></g><g class="node" aria-label="graph-node47" transform="translate(413.15038647603996,-613.2672672398569)"><circle class="b-outline" cx="0" cy="0" r="25" fill="#FFC454" stroke="#d7a013" stroke-width="2px"/><text class="caption" text-anchor="middle" pointer-events="none" x="0" y="5" font-size="10px" fill="#2A2C34" font-family="Helvetica Neue, Helvetica, Arial, sans-serif"> web-app…</text></g><g class="node" aria-label="graph-node48" transform="translate(-331.382851695328,293.0443197995478)"><circle class="b-outline" cx="0" cy="0" r="25" fill="#4C8EDA" stroke="#2870c2" stroke-width="2px"/><text class="caption" text-anchor="middle" pointer-events="none" x="0" y="5" font-size="10px" fill="#FFFFFF" font-family="Helvetica Neue, Helvetica, Arial, sans-serif"> flasksvc</text></g><g class="node" aria-label="graph-node49" transform="translate(-40.4592854800384,37.57344512766482)"><circle class="b-outline" cx="0" cy="0" r="25" fill="#4C8EDA" stroke="#2870c2" stroke-width="2px"/><text class="caption" text-anchor="middle" pointer-events="none" x="0" y="5" font-size="10px" fill="#FFFFFF" font-family="Helvetica Neue, Helvetica, Arial, sans-serif"> kubernet…</text></g><g class="node" aria-label="graph-node50" transform="translate(-108.17510165423514,-414.3795349740916)"><circle class="b-outline" cx="0" cy="0" r="25" fill="#4C8EDA" stroke="#2870c2" stroke-width="2px"/><text class="caption" text-anchor="middle" pointer-events="none" x="0" y="5" font-size="10px" fill="#FFFFFF" font-family="Helvetica Neue, Helvetica, Arial, sans-serif"> ingress-…</text></g><g class="node" aria-label="graph-node51" transform="translate(-14.111273637458833,-447.73214377088834)"><circle class="b-outline" cx="0" cy="0" r="25" fill="#4C8EDA" stroke="#2870c2" stroke-width="2px"/><text class="caption" text-anchor="middle" pointer-events="none" x="0" y="5" font-size="10px" fill="#FFFFFF" font-family="Helvetica Neue, Helvetica, Arial, sans-serif"> ingress-…</text></g><g class="node" aria-label="graph-node52" transform="translate(235.11008425499037,285.64315369610864)"><circle class="b-outline" cx="0" cy="0" r="25" fill="#4C8EDA" stroke="#2870c2" stroke-width="2px"/><text class="caption" text-anchor="middle" pointer-events="none" x="0" y="5" font-size="10px" fill="#FFFFFF" font-family="Helvetica Neue, Helvetica, Arial, sans-serif"> kube-dns</text></g><g class="node" aria-label="graph-node53" transform="translate(-439.6550445934333,-359.04603581870316)"><circle class="b-outline" cx="0" cy="0" r="25" fill="#4C8EDA" stroke="#2870c2" stroke-width="2px"/><text class="caption" text-anchor="middle" pointer-events="none" x="0" y="5" font-size="10px" fill="#FFFFFF" font-family="Helvetica Neue, Helvetica, Arial, sans-serif"> dashboa…</text></g><g class="node" aria-label="graph-node54" transform="translate(-499.990124809721,-280.07395623402084)"><circle class="b-outline" cx="0" cy="0" r="25" fill="#4C8EDA" stroke="#2870c2" stroke-width="2px"/><text class="caption" text-anchor="middle" pointer-events="none" x="0" y="5" font-size="10px" fill="#FFFFFF" font-family="Helvetica Neue, Helvetica, Arial, sans-serif"> kubernet…</text></g><g class="node" aria-label="graph-node55" transform="translate(509.7912650355039,-433.90410646742333)"><circle class="b-outline" cx="0" cy="0" r="25" fill="#4C8EDA" stroke="#2870c2" stroke-width="2px"/><text class="caption" text-anchor="middle" pointer-events="none" x="0" y="5" font-size="10px" fill="#FFFFFF" font-family="Helvetica Neue, Helvetica, Arial, sans-serif"> web-ser…</text></g><g class="node" aria-label="graph-node56" transform="translate(-135.98417496479524,10.572297974113896)"><circle class="b-outline" cx="0" cy="0" r="25" fill="#ECB5C9" stroke="#da7298" stroke-width="2px"/><text class="caption" text-anchor="middle" pointer-events="none" x="0" y="5" font-size="10px" fill="#2A2C34" font-family="Helvetica Neue, Helvetica, Arial, sans-serif"> sh.helm.…</text></g><g class="node" aria-label="graph-node57" transform="translate(-44.451678009100796,295.95737894386497)"><circle class="b-outline" cx="0" cy="0" r="25" fill="#ECB5C9" stroke="#da7298" stroke-width="2px"/><text class="caption" text-anchor="middle" pointer-events="none" x="0" y="5" font-size="10px" fill="#2A2C34" font-family="Helvetica Neue, Helvetica, Arial, sans-serif"> sh.helm.…</text></g><g class="node" aria-label="graph-node58" transform="translate(-229.2296579274108,44.3357721592567)"><circle class="b-outline" cx="0" cy="0" r="25" fill="#ECB5C9" stroke="#da7298" stroke-width="2px"/><text class="caption" text-anchor="middle" pointer-events="none" x="0" y="5" font-size="10px" fill="#2A2C34" font-family="Helvetica Neue, Helvetica, Arial, sans-serif"> sh.helm.…</text></g><g class="node" aria-label="graph-node59" transform="translate(17.96877693025843,117.97896881873369)"><circle class="b-outline" cx="0" cy="0" r="25" fill="#ECB5C9" stroke="#da7298" stroke-width="2px"/><text class="caption" text-anchor="middle" pointer-events="none" x="0" y="5" font-size="10px" fill="#2A2C34" font-family="Helvetica Neue, Helvetica, Arial, sans-serif"> sh.helm.…</text></g><g class="node" aria-label="graph-node60" transform="translate(-130.78891387141124,344.2065688547174)"><circle class="b-outline" cx="0" cy="0" r="25" fill="#ECB5C9" stroke="#da7298" stroke-width="2px"/><text class="caption" text-anchor="middle" pointer-events="none" x="0" y="5" font-size="10px" fill="#2A2C34" font-family="Helvetica Neue, Helvetica, Arial, sans-serif"> sh.helm.…</text></g><g class="node" aria-label="graph-node61" transform="translate(-284.66245566944804,126.46732662583089)"><circle class="b-outline" cx="0" cy="0" r="25" fill="#ECB5C9" stroke="#da7298" stroke-width="2px"/><text class="caption" text-anchor="middle" pointer-events="none" x="0" y="5" font-size="10px" fill="#2A2C34" font-family="Helvetica Neue, Helvetica, Arial, sans-serif"> sh.helm.…</text></g><g class="node" aria-label="graph-node62" transform="translate(-261.4001910169292,222.88370109336165)"><circle class="b-outline" cx="0" cy="0" r="25" fill="#ECB5C9" stroke="#da7298" stroke-width="2px"/><text class="caption" text-anchor="middle" pointer-events="none" x="0" y="5" font-size="10px" fill="#2A2C34" font-family="Helvetica Neue, Helvetica, Arial, sans-serif"> sh.helm.…</text></g><g class="node" aria-label="graph-node63" transform="translate(-235.58790234874456,318.95809855201855)"><circle class="b-outline" cx="0" cy="0" r="25" fill="#ECB5C9" stroke="#da7298" stroke-width="2px"/><text class="caption" text-anchor="middle" pointer-events="none" x="0" y="5" font-size="10px" fill="#2A2C34" font-family="Helvetica Neue, Helvetica, Arial, sans-serif"> sh.helm.…</text></g><g class="node" aria-label="graph-node64" transform="translate(16.282433029054975,217.6856736506398)"><circle class="b-outline" cx="0" cy="0" r="25" fill="#ECB5C9" stroke="#da7298" stroke-width="2px"/><text class="caption" text-anchor="middle" pointer-events="none" x="0" y="5" font-size="10px" fill="#2A2C34" font-family="Helvetica Neue, Helvetica, Arial, sans-serif"> sh.helm.…</text></g><g class="node" aria-label="graph-node65" transform="translate(-165.59900251272924,252.8365333449187)"><circle class="b-outline" cx="0" cy="0" r="25" fill="#ECB5C9" stroke="#da7298" stroke-width="2px"/><text class="caption" text-anchor="middle" pointer-events="none" x="0" y="5" font-size="10px" fill="#2A2C34" font-family="Helvetica Neue, Helvetica, Arial, sans-serif"> sh.helm.…</text></g><g class="node" aria-label="graph-node66" transform="translate(-125.22222860634868,-316.25656198135255)"><circle class="b-outline" cx="0" cy="0" r="25" fill="#ECB5C9" stroke="#da7298" stroke-width="2px"/><text class="caption" text-anchor="middle" pointer-events="none" x="0" y="5" font-size="10px" fill="#2A2C34" font-family="Helvetica Neue, Helvetica, Arial, sans-serif"> ingress-…</text></g><g class="node" aria-label="graph-node67" transform="translate(-441.522317905978,-200.29024677507584)"><circle class="b-outline" cx="0" cy="0" r="25" fill="#ECB5C9" stroke="#da7298" stroke-width="2px"/><text class="caption" text-anchor="middle" pointer-events="none" x="0" y="5" font-size="10px" fill="#2A2C34" font-family="Helvetica Neue, Helvetica, Arial, sans-serif"> kubernet…</text></g><g class="node" aria-label="graph-node68" transform="translate(-202.5093395386931,-203.3080105495696)"><circle class="b-outline" cx="0" cy="0" r="25" fill="#ECB5C9" stroke="#da7298" stroke-width="2px"/><text class="caption" text-anchor="middle" pointer-events="none" x="0" y="5" font-size="10px" fill="#2A2C34" font-family="Helvetica Neue, Helvetica, Arial, sans-serif"> kubernet…</text></g><g class="node" aria-label="graph-node69" transform="translate(-358.0966404939851,-145.82895698836762)"><circle class="b-outline" cx="0" cy="0" r="25" fill="#ECB5C9" stroke="#da7298" stroke-width="2px"/><text class="caption" text-anchor="middle" pointer-events="none" x="0" y="5" font-size="10px" fill="#2A2C34" font-family="Helvetica Neue, Helvetica, Arial, sans-serif"> kubernet…</text></g></g></svg>